<mxfile host="Electron" agent="Mozilla/5.0 (Macintosh; Intel Mac OS X 10_15_7) AppleWebKit/537.36 (KHTML, like Gecko) draw.io/26.2.2 Chrome/134.0.6998.178 Electron/35.1.2 Safari/537.36" version="26.2.2">
  <diagram name="Page-1" id="dq8juwHjYBTWb1SoAbBf">
    <mxGraphModel dx="986" dy="1018" grid="1" gridSize="10" guides="1" tooltips="1" connect="1" arrows="1" fold="1" page="1" pageScale="1" pageWidth="1920" pageHeight="1200" math="0" shadow="0">
      <root>
        <mxCell id="0" />
        <mxCell id="1" parent="0" />
        <mxCell id="RrzdnQDn-9nG9QoV303n-27" value="Rangierbegleiter müssen im zug einstellen, welche seiten tatsächlich genutzt werden müssen, wenn zug teile getrennt/dran getan werden, um mehrere meshes zu unterstützen" style="rounded=0;whiteSpace=wrap;html=1;" parent="1" vertex="1">
          <mxGeometry x="670" y="80" width="250" height="70" as="geometry" />
        </mxCell>
        <mxCell id="RrzdnQDn-9nG9QoV303n-28" value="Rangier begleiter können &quot;2 züge zu einem machen&quot;&lt;div&gt;Und den zügen sagen dass sie sich mit einander verbinden sollen&lt;/div&gt;" style="rounded=0;whiteSpace=wrap;html=1;" parent="1" vertex="1">
          <mxGeometry x="670" y="160" width="250" height="70" as="geometry" />
        </mxCell>
        <mxCell id="RrzdnQDn-9nG9QoV303n-29" value="Die seiten verbinden sich dann untereinander über wlan an den enden (wlan0)&lt;br&gt;Beide seiten müssen in den &quot;kupplungs modus&quot; getan werden vom rangier begleiter" style="rounded=0;whiteSpace=wrap;html=1;" parent="1" vertex="1">
          <mxGeometry x="930" y="160" width="250" height="70" as="geometry" />
        </mxCell>
        <mxCell id="fbIB9J7qFFFKaNbtSgQg-2" value="Danach suchen die seiten nach sich (mby über bluetooth?)" style="rounded=0;whiteSpace=wrap;html=1;" parent="1" vertex="1">
          <mxGeometry x="930" y="240" width="250" height="70" as="geometry" />
        </mxCell>
        <mxCell id="fbIB9J7qFFFKaNbtSgQg-3" value="Dadurch dass die beiden seiten die sich suchen so nah an einander sind, deaktivieren sie ihre eigene steuerung danach selbst" style="rounded=0;whiteSpace=wrap;html=1;" parent="1" vertex="1">
          <mxGeometry x="930" y="320" width="250" height="70" as="geometry" />
        </mxCell>
        <mxCell id="YDuEinJ2u5WotXFXWLW8-219" value="The WiFi hotspot for tablets is hosted on network 192.168.1.1" style="rounded=0;whiteSpace=wrap;html=1;" parent="1" vertex="1">
          <mxGeometry x="170" y="80" width="120" height="60" as="geometry" />
        </mxCell>
        <mxCell id="YDuEinJ2u5WotXFXWLW8-220" value="The local lan network is on 192.168.0.1" style="rounded=0;whiteSpace=wrap;html=1;" parent="1" vertex="1">
          <mxGeometry x="300" y="80" width="120" height="60" as="geometry" />
        </mxCell>
        <mxCell id="YDuEinJ2u5WotXFXWLW8-221" value="The master central bridge is always 192.168.0.1 and the slave is 192.168.0.2" style="rounded=0;whiteSpace=wrap;html=1;" parent="1" vertex="1">
          <mxGeometry x="430" y="80" width="120" height="60" as="geometry" />
        </mxCell>
        <mxCell id="YDuEinJ2u5WotXFXWLW8-222" value="&lt;font style=&quot;line-height: 100%; font-size: 10px;&quot;&gt;A tablet can log in into the hotspot using its macaddress and the current code of a yubikey.&lt;/font&gt;" style="rounded=0;whiteSpace=wrap;html=1;" parent="1" vertex="1">
          <mxGeometry x="170" y="200" width="120" height="60" as="geometry" />
        </mxCell>
        <mxCell id="YDuEinJ2u5WotXFXWLW8-226" style="edgeStyle=orthogonalEdgeStyle;rounded=0;orthogonalLoop=1;jettySize=auto;html=1;entryX=0;entryY=0.5;entryDx=0;entryDy=0;" parent="1" source="YDuEinJ2u5WotXFXWLW8-223" target="YDuEinJ2u5WotXFXWLW8-225" edge="1">
          <mxGeometry relative="1" as="geometry" />
        </mxCell>
        <mxCell id="YDuEinJ2u5WotXFXWLW8-227" style="edgeStyle=orthogonalEdgeStyle;rounded=0;orthogonalLoop=1;jettySize=auto;html=1;entryX=0;entryY=0.5;entryDx=0;entryDy=0;" parent="1" source="YDuEinJ2u5WotXFXWLW8-223" target="YDuEinJ2u5WotXFXWLW8-224" edge="1">
          <mxGeometry relative="1" as="geometry" />
        </mxCell>
        <mxCell id="YDuEinJ2u5WotXFXWLW8-223" value="&lt;font style=&quot;line-height: 80%; font-size: 8px;&quot;&gt;Both the yubikey serial number(and secret) and mac address of the tablet need to be registered on the central server.&lt;/font&gt;" style="rounded=0;whiteSpace=wrap;html=1;" parent="1" vertex="1">
          <mxGeometry x="300" y="200" width="120" height="60" as="geometry" />
        </mxCell>
        <mxCell id="YDuEinJ2u5WotXFXWLW8-224" value="&lt;font style=&quot;line-height: 80%; font-size: 8px;&quot;&gt;This can be done using the Manager app.&lt;/font&gt;" style="rounded=0;whiteSpace=wrap;html=1;" parent="1" vertex="1">
          <mxGeometry x="470" y="200" width="120" height="60" as="geometry" />
        </mxCell>
        <mxCell id="YDuEinJ2u5WotXFXWLW8-225" value="&lt;font style=&quot;line-height: 80%; font-size: 8px;&quot;&gt;These infos are automatically synced by the central bridge in regular intervals when internet is available.&lt;/font&gt;" style="rounded=0;whiteSpace=wrap;html=1;" parent="1" vertex="1">
          <mxGeometry x="470" y="270" width="120" height="60" as="geometry" />
        </mxCell>
        <mxCell id="YDuEinJ2u5WotXFXWLW8-228" value="TODO: Rewrite (This contains valid infos" style="text;html=1;align=center;verticalAlign=middle;whiteSpace=wrap;rounded=0;fillColor=#dae8fc;strokeColor=#6c8ebf;" parent="1" vertex="1">
          <mxGeometry x="670" y="30" width="510" height="30" as="geometry" />
        </mxCell>
        <mxCell id="YDuEinJ2u5WotXFXWLW8-230" value="Relevant informations to the API" style="text;html=1;align=center;verticalAlign=middle;whiteSpace=wrap;rounded=0;fillColor=#f5f5f5;fontColor=#333333;strokeColor=#666666;" parent="1" vertex="1">
          <mxGeometry x="160" y="30" width="440" height="30" as="geometry" />
        </mxCell>
      </root>
    </mxGraphModel>
  </diagram>
</mxfile>
